<svg width="70" height="70" viewBox="0 0 70 70" fill="none" xmlns="http://www.w3.org/2000/svg">
<path fill-rule="evenodd" clip-rule="evenodd" d="M35 68.2C53.3359 68.2 68.2 53.3359 68.2 35C68.2 16.6641 53.3359 1.8 35 1.8C16.6641 1.8 1.8 16.6641 1.8 35C1.8 53.3359 16.6641 68.2 35 68.2ZM35 70C54.33 70 70 54.33 70 35C70 15.67 54.33 0 35 0C15.67 0 0 15.67 0 35C0 54.33 15.67 70 35 70Z" fill="#FC495D"/>
<path fill-rule="evenodd" clip-rule="evenodd" d="M16.5308 35.691C16.5308 35.194 16.9337 34.791 17.4308 34.791H20.7552C21.2523 34.791 21.6552 35.194 21.6552 35.691C21.6552 36.1881 21.2523 36.591 20.7552 36.591H17.4308C16.9337 36.591 16.5308 36.1881 16.5308 35.691Z" fill="#FC495D"/>
<path fill-rule="evenodd" clip-rule="evenodd" d="M11.5459 39.6773C11.5459 39.1803 11.9488 38.7773 12.4459 38.7773H20.7552C21.2523 38.7773 21.6552 39.1803 21.6552 39.6773C21.6552 40.1744 21.2523 40.5773 20.7552 40.5773H12.4459C11.9488 40.5773 11.5459 40.1744 11.5459 39.6773Z" fill="#FC495D"/>
<path fill-rule="evenodd" clip-rule="evenodd" d="M8.72424 43.943C8.72424 43.4459 9.12719 43.043 9.62424 43.043H20.755C21.252 43.043 21.655 43.4459 21.655 43.943C21.655 44.44 21.252 44.843 20.755 44.843H9.62424C9.12719 44.843 8.72424 44.44 8.72424 43.943Z" fill="#FC495D"/>
<path fill-rule="evenodd" clip-rule="evenodd" d="M25.6 20.4996C25.6 20.0026 26.0029 19.5996 26.5 19.5996H66V21.3996H29.7493L51.4785 34.4372L67.0062 24.2472L67.9938 25.7521L51.5214 36.562L27.4 22.0892V49.5996H65.5V51.3996H26.5C26.0029 51.3996 25.6 50.9967 25.6 50.4996V20.4996Z" fill="#FC495D"/>
</svg>
