<svg width="188" height="33" viewBox="0 0 188 33" fill="none" xmlns="http://www.w3.org/2000/svg">
<rect width="188" height="33" fill="#04142B"/>
<path fill-rule="evenodd" clip-rule="evenodd" d="M14.9103 0.265869L29.8207 15.5112V33.0002H22.0414V18.6728L14.9103 11.3815L7.77931 18.6728V33.0002H0V15.5112L14.9103 0.265869Z" fill="#FC495D"/>
<path d="M55.9657 24.5881L54.2154 11.9705H52.465L48.517 20.667L44.4718 11.9705H42.702L40.9322 24.5881H43.9272L44.7246 17.7746L47.6807 24.5881H49.3727L52.3872 17.7746L53.1652 24.5881H55.9657Z" fill="white"/>
<path d="M66.8013 14.8823H64.1952L61.8614 20.9776L59.5082 14.8823H56.552L56.4159 15.0958L60.4222 23.8311L60.0138 24.6852C59.7027 25.3646 59.2554 25.4617 58.8664 25.4617C58.4969 25.4617 58.1274 25.3646 57.894 25.2287L57.68 25.3258L57.1355 27.1699L57.2327 27.364C57.6995 27.6358 58.3024 27.7911 59.022 27.7911C60.3639 27.7911 61.6864 27.267 62.5616 25.2287L66.9569 15.0958L66.8013 14.8823Z" fill="white"/>
<path d="M77.7905 11.9705H72.2866V24.5881H75.3205V20.2399H77.7905C80.9994 20.2399 82.6914 18.6481 82.6914 16.1052C82.6914 13.5623 80.9605 11.9705 77.7905 11.9705ZM77.8294 17.8911H75.3205V14.4552H77.8294C78.8601 14.4552 79.5797 15.0764 79.5797 16.1828C79.5797 17.2893 78.8601 17.8911 77.8294 17.8911Z" fill="white"/>
<path d="M91.1302 14.9793C90.6245 14.7658 90.0994 14.6493 89.4965 14.6493C88.3685 14.6493 87.4544 15.2123 86.8126 16.144V14.8823H84.2844V24.5881H87.2989V19.3858C87.2989 18.1046 88.0768 17.2117 89.2631 17.2117C89.691 17.2117 90.0605 17.2505 90.43 17.4446L90.644 17.3087L91.2663 15.2123L91.1302 14.9793Z" fill="white"/>
<path d="M96.8741 24.8211C99.9858 24.8211 102.242 22.6664 102.242 19.7352C102.242 16.804 99.9858 14.6493 96.8741 14.6493C93.7624 14.6493 91.4869 16.804 91.4869 19.7352C91.4869 22.6664 93.7624 24.8211 96.8741 24.8211ZM96.8741 22.2587C95.4544 22.2587 94.4625 21.1911 94.4625 19.7352C94.4625 18.2793 95.4738 17.2117 96.8741 17.2117C98.2744 17.2117 99.2857 18.2793 99.2857 19.7352C99.2857 21.1911 98.2744 22.2587 96.8741 22.2587Z" fill="white"/>
<path d="M109.753 14.6493C108.509 14.6493 107.439 15.0958 106.603 15.814V14.8823H104.075V27.5776H107.089V24.0058C107.828 24.5105 108.742 24.8211 109.753 24.8211C112.593 24.8211 114.615 22.5887 114.615 19.7352C114.615 16.8817 112.573 14.6493 109.753 14.6493ZM109.267 22.2587C107.945 22.2587 106.914 21.3076 106.914 19.7352C106.914 18.1628 107.964 17.2117 109.267 17.2117C110.706 17.2117 111.659 18.3181 111.659 19.7352C111.659 21.1523 110.706 22.2587 109.267 22.2587Z" fill="white"/>
<path d="M125.968 20.3952C126.007 20.1623 126.027 19.9099 126.027 19.6187C126.027 18.1434 125.501 16.9011 124.607 16.0081C123.712 15.154 122.468 14.6493 121.028 14.6493C117.975 14.6493 115.836 16.804 115.836 19.7546C115.836 22.7828 118.15 24.8211 121.203 24.8211C122.701 24.8211 124.49 24.3358 125.579 23.0546V22.8217L124.237 21.5405H124.023C123.362 22.2393 122.331 22.6081 121.34 22.6081C119.998 22.6081 118.889 21.8705 118.753 20.3952H125.968ZM120.951 16.7652C121.573 16.7652 122.117 16.9787 122.506 17.3864C122.818 17.697 123.032 18.1628 123.109 18.687H118.772C118.928 17.5223 119.745 16.7652 120.951 16.7652Z" fill="white"/>
<path d="M134.68 14.9793C134.174 14.7658 133.649 14.6493 133.046 14.6493C131.918 14.6493 131.004 15.2123 130.362 16.144V14.8823H127.834V24.5881H130.849V19.3858C130.849 18.1046 131.626 17.2117 132.813 17.2117C133.241 17.2117 133.61 17.2505 133.98 17.4446L134.194 17.3087L134.816 15.2123L134.68 14.9793Z" fill="white"/>
<path d="M142.089 22.0064L141.855 21.9093C141.583 22.1423 141.194 22.2781 140.883 22.2781C140.202 22.2781 139.716 21.9093 139.716 20.8999V17.0952H142.575V14.8823H139.716V11.854L139.483 11.7181L136.74 12.0093V14.8823H135.048V17.0952H136.74V21.1911C136.74 23.734 138.452 24.8211 140.358 24.8211C141.291 24.8211 142.147 24.5299 142.808 24.0446L142.905 23.8117L142.089 22.0064Z" fill="white"/>
<path d="M153.616 14.8823H151.01L148.676 20.9776L146.323 14.8823H143.367L143.23 15.0958L147.237 23.8311L146.828 24.6852C146.517 25.3646 146.07 25.4617 145.681 25.4617C145.311 25.4617 144.942 25.3646 144.708 25.2287L144.495 25.3258L143.95 27.1699L144.047 27.364C144.514 27.6358 145.117 27.7911 145.836 27.7911C147.178 27.7911 148.501 27.267 149.376 25.2287L153.771 15.0958L153.616 14.8823Z" fill="white"/>
<path d="M165.169 24.8211C167.464 24.8211 169.311 23.8117 170.498 22.3558V22.1423L168.631 20.5893H168.417C167.678 21.4823 166.511 22.084 165.208 22.084C163.088 22.084 161.435 20.4923 161.435 18.2793C161.435 16.0664 163.088 14.4746 165.208 14.4746C166.511 14.4746 167.678 15.0764 168.417 15.9693H168.631L170.498 14.4164V14.2028C169.292 12.7081 167.386 11.7376 165.208 11.7376C161.318 11.7376 158.343 14.5328 158.343 18.2793C158.343 22.0258 161.338 24.8211 165.169 24.8211Z" fill="white"/>
<path d="M176.737 24.8211C179.849 24.8211 182.105 22.6664 182.105 19.7352C182.105 16.804 179.849 14.6493 176.737 14.6493C173.626 14.6493 171.35 16.804 171.35 19.7352C171.35 22.6664 173.626 24.8211 176.737 24.8211ZM176.737 22.2587C175.318 22.2587 174.326 21.1911 174.326 19.7352C174.326 18.2793 175.337 17.2117 176.737 17.2117C178.138 17.2117 179.149 18.2793 179.149 19.7352C179.149 21.1911 178.138 22.2587 176.737 22.2587Z" fill="white"/>
<path d="M185.146 24.8211C186.177 24.8211 186.994 23.9864 186.994 22.977C186.994 21.9481 186.177 21.1134 185.146 21.1134C184.116 21.1134 183.279 21.9481 183.279 22.977C183.279 23.9864 184.116 24.8211 185.146 24.8211Z" fill="white"/>
</svg>
