<?xml version="1.0" encoding="utf-8"?>
<!-- Generator: Adobe Illustrator 16.0.0, SVG Export Plug-In . SVG Version: 6.00 Build 0)  -->
<!DOCTYPE svg PUBLIC "-//W3C//DTD SVG 1.1//EN" "http://www.w3.org/Graphics/SVG/1.1/DTD/svg11.dtd">
<svg version="1.1" id="Layer_1" xmlns="http://www.w3.org/2000/svg" xmlns:xlink="http://www.w3.org/1999/xlink" x="0px" y="0px"
	 width="400.5px" height="174px" viewBox="-0.205 0.02 400.5 174" enable-background="new -0.205 0.02 400.5 174"
	 xml:space="preserve">
<path fill="#FFFFFF" d="M313.928,53.961c-3.641-2.297-7.727-3.445-12.258-3.445c-6.438,0-11.977,2.211-16.617,6.633
	c-4.641,4.422-6.961,11.805-6.961,22.148c0,8.281,2.227,14.805,6.68,19.57s10.039,7.148,16.758,7.148
	c6.844,0,12.477-2.406,16.898-7.219s6.633-11.641,6.633-20.484c0-5.594-0.945-10.477-2.836-14.648S317.568,56.258,313.928,53.961z"
	/>
<path fill="#FFFFFF" d="M164.584,53.961c-3.641-2.297-7.727-3.445-12.258-3.445c-6.438,0-11.977,2.211-16.617,6.633
	c-4.641,4.422-6.961,11.805-6.961,22.148c0,8.281,2.227,14.805,6.68,19.57s10.039,7.148,16.758,7.148
	c6.844,0,12.477-2.406,16.898-7.219s6.633-11.641,6.633-20.484c0-5.594-0.945-10.477-2.836-14.648S168.225,56.258,164.584,53.961z"
	/>
<g>
	<path fill="#FFFFFF" d="M198.295,0.02c-116.958,0-198.5,41.19-198.5,88c0,46.811,87.542,86,204.5,86c116.959,0,196-41.689,196-88.5
		C400.295,38.71,315.254,0.02,198.295,0.02z M111.311,112.625H68.373V43.907h9.094v60.609h33.844V112.625z M180.873,97.063
		c-2.813,5.5-6.797,9.664-11.953,12.492s-10.719,4.242-16.688,4.242c-6.469,0-12.25-1.563-17.344-4.688s-8.953-7.391-11.578-12.797
		s-3.938-11.125-3.938-17.156c0-11.406,3.063-20.336,9.188-26.789c6.125-6.453,14.031-9.68,23.719-9.68
		c6.344,0,12.063,1.516,17.156,4.547c5.094,3.031,8.977,7.258,11.648,12.68c2.672,5.422,4.008,11.571,4.008,18.445
		C185.092,85.329,183.686,91.563,180.873,97.063z M258.076,103.063c-4.469,3.563-9.078,6.242-13.828,8.039
		s-9.625,2.695-14.625,2.695c-6.75,0-12.883-1.445-18.398-4.336s-9.68-7.07-12.492-12.539s-4.219-11.578-4.219-18.328
		c0-6.687,1.398-12.93,4.195-18.727c2.797-5.796,6.82-10.102,12.07-12.914s11.297-4.219,18.141-4.219
		c4.969,0,9.461,0.805,13.477,2.414c4.016,1.61,7.164,3.852,9.445,6.727c2.281,2.875,4.016,6.625,5.203,11.25l-8.203,2.25
		c-1.031-3.5-2.313-6.25-3.844-8.25c-1.531-2-3.719-3.602-6.563-4.805c-2.844-1.203-6-1.805-9.469-1.805
		c-4.156,0-7.75,0.633-10.781,1.898s-5.477,2.93-7.336,4.992s-3.305,4.329-4.336,6.797c-1.75,4.25-2.625,8.859-2.625,13.828
		c0,6.125,1.055,11.25,3.164,15.375s5.18,7.188,9.211,9.188s8.313,3,12.844,3c3.938,0,7.781-0.758,11.531-2.273
		s6.594-3.133,8.531-4.852V85.672h-20.203V77.61l29.109-0.047V103.063z M330.217,97.063c-2.813,5.5-6.797,9.664-11.953,12.492
		s-10.719,4.242-16.688,4.242c-6.469,0-12.25-1.563-17.344-4.688s-8.953-7.391-11.578-12.797s-3.938-11.125-3.938-17.156
		c0-11.406,3.063-20.336,9.188-26.789c6.125-6.453,14.031-9.68,23.719-9.68c6.344,0,12.063,1.516,17.156,4.547
		c5.094,3.031,8.977,7.258,11.648,12.68c2.672,5.422,4.008,11.571,4.008,18.445C334.436,85.329,333.029,91.563,330.217,97.063z"/>
	<path fill="#FFFFFF" d="M313.928,53.961c-3.641-2.297-7.727-3.445-12.258-3.445c-6.438,0-11.977,2.211-16.617,6.633
		c-4.641,4.422-6.961,11.805-6.961,22.148c0,8.281,2.227,14.805,6.68,19.57s10.039,7.148,16.758,7.148
		c6.844,0,12.477-2.406,16.898-7.219s6.633-11.641,6.633-20.484c0-5.594-0.945-10.477-2.836-14.648S317.568,56.258,313.928,53.961z"
		/>
	<path fill="#FFFFFF" d="M164.584,53.961c-3.641-2.297-7.727-3.445-12.258-3.445c-6.438,0-11.977,2.211-16.617,6.633
		c-4.641,4.422-6.961,11.805-6.961,22.148c0,8.281,2.227,14.805,6.68,19.57s10.039,7.148,16.758,7.148
		c6.844,0,12.477-2.406,16.898-7.219s6.633-11.641,6.633-20.484c0-5.594-0.945-10.477-2.836-14.648S168.225,56.258,164.584,53.961z"
		/>
</g>
</svg>
