<svg width="290" height="51" viewBox="0 0 290 51" fill="none" xmlns="http://www.w3.org/2000/svg">
<rect width="290" height="51" fill="#04142B"/>
<path fill-rule="evenodd" clip-rule="evenodd" d="M23 0.410645L46 23.9716V51H34V28.8577L23 17.5894L12 28.8577V51H0V23.9716L23 0.410645Z" fill="#FC495D"/>
<path d="M86.33 38.0001L83.63 18.5001H80.93L74.84 31.9401L68.6 18.5001H65.87L63.14 38.0001H67.76L68.99 27.4701L73.55 38.0001H76.16L80.81 27.4701L82.01 38.0001H86.33Z" fill="white"/>
<path d="M103.044 23.0001H99.0245L95.4245 32.4201L91.7945 23.0001H87.2345L87.0245 23.3301L93.2045 36.8301L92.5745 38.1501C92.0945 39.2001 91.4045 39.3501 90.8045 39.3501C90.2345 39.3501 89.6645 39.2001 89.3045 38.9901L88.9745 39.1401L88.1345 41.9901L88.2845 42.2901C89.0045 42.7101 89.9345 42.9501 91.0445 42.9501C93.1145 42.9501 95.1545 42.1401 96.5045 38.9901L103.284 23.3301L103.044 23.0001Z" fill="white"/>
<path d="M119.996 18.5001H111.506V38.0001H116.186V31.2801H119.996C124.946 31.2801 127.556 28.8201 127.556 24.8901C127.556 20.9601 124.886 18.5001 119.996 18.5001ZM120.056 27.6501H116.186V22.3401H120.056C121.646 22.3401 122.756 23.3001 122.756 25.0101C122.756 26.7201 121.646 27.6501 120.056 27.6501Z" fill="white"/>
<path d="M140.573 23.1501C139.793 22.8201 138.983 22.6401 138.053 22.6401C136.313 22.6401 134.903 23.5101 133.913 24.9501V23.0001H130.013V38.0001H134.663V29.9601C134.663 27.9801 135.863 26.6001 137.693 26.6001C138.353 26.6001 138.923 26.6601 139.493 26.9601L139.823 26.7501L140.783 23.5101L140.573 23.1501Z" fill="white"/>
<path d="M149.433 38.3601C154.233 38.3601 157.713 35.0301 157.713 30.5001C157.713 25.9701 154.233 22.6401 149.433 22.6401C144.633 22.6401 141.123 25.9701 141.123 30.5001C141.123 35.0301 144.633 38.3601 149.433 38.3601ZM149.433 34.4001C147.243 34.4001 145.713 32.7501 145.713 30.5001C145.713 28.2501 147.273 26.6001 149.433 26.6001C151.593 26.6001 153.153 28.2501 153.153 30.5001C153.153 32.7501 151.593 34.4001 149.433 34.4001Z" fill="white"/>
<path d="M169.3 22.6401C167.38 22.6401 165.73 23.3301 164.44 24.4401V23.0001H160.54V42.6201H165.19V37.1001C166.33 37.8801 167.74 38.3601 169.3 38.3601C173.68 38.3601 176.8 34.9101 176.8 30.5001C176.8 26.0901 173.65 22.6401 169.3 22.6401ZM168.55 34.4001C166.51 34.4001 164.92 32.9301 164.92 30.5001C164.92 28.0701 166.54 26.6001 168.55 26.6001C170.77 26.6001 172.24 28.3101 172.24 30.5001C172.24 32.6901 170.77 34.4001 168.55 34.4001Z" fill="white"/>
<path d="M194.313 31.5201C194.373 31.1601 194.403 30.7701 194.403 30.3201C194.403 28.0401 193.593 26.1201 192.213 24.7401C190.833 23.4201 188.913 22.6401 186.693 22.6401C181.983 22.6401 178.683 25.9701 178.683 30.5301C178.683 35.2101 182.253 38.3601 186.963 38.3601C189.273 38.3601 192.033 37.6101 193.713 35.6301V35.2701L191.643 33.2901H191.313C190.293 34.3701 188.703 34.9401 187.173 34.9401C185.103 34.9401 183.393 33.8001 183.183 31.5201H194.313ZM186.573 25.9101C187.533 25.9101 188.373 26.2401 188.973 26.8701C189.453 27.3501 189.783 28.0701 189.903 28.8801H183.213C183.453 27.0801 184.713 25.9101 186.573 25.9101Z" fill="white"/>
<path d="M207.751 23.1501C206.971 22.8201 206.161 22.6401 205.231 22.6401C203.491 22.6401 202.081 23.5101 201.091 24.9501V23.0001H197.191V38.0001H201.841V29.9601C201.841 27.9801 203.041 26.6001 204.871 26.6001C205.531 26.6001 206.101 26.6601 206.671 26.9601L207.001 26.7501L207.961 23.5101L207.751 23.1501Z" fill="white"/>
<path d="M219.179 34.0101L218.819 33.8601C218.399 34.2201 217.799 34.4301 217.319 34.4301C216.269 34.4301 215.519 33.8601 215.519 32.3001V26.4201H219.929V23.0001H215.519V18.3201L215.159 18.1101L210.929 18.5601V23.0001H208.319V26.4201H210.929V32.7501C210.929 36.6801 213.569 38.3601 216.509 38.3601C217.949 38.3601 219.269 37.9101 220.289 37.1601L220.439 36.8001L219.179 34.0101Z" fill="white"/>
<path d="M236.96 23.0001H232.94L229.34 32.4201L225.71 23.0001H221.15L220.94 23.3301L227.12 36.8301L226.49 38.1501C226.01 39.2001 225.32 39.3501 224.72 39.3501C224.15 39.3501 223.58 39.2001 223.22 38.9901L222.89 39.1401L222.05 41.9901L222.2 42.2901C222.92 42.7101 223.85 42.9501 224.96 42.9501C227.03 42.9501 229.07 42.1401 230.42 38.9901L237.2 23.3301L236.96 23.0001Z" fill="white"/>
<path d="M254.782 38.3601C258.322 38.3601 261.172 36.8001 263.002 34.5501V34.2201L260.122 31.8201H259.792C258.652 33.2001 256.852 34.1301 254.842 34.1301C251.572 34.1301 249.022 31.6701 249.022 28.2501C249.022 24.8301 251.572 22.3701 254.842 22.3701C256.852 22.3701 258.652 23.3001 259.792 24.6801H260.122L263.002 22.2801V21.9501C261.142 19.6401 258.202 18.1401 254.842 18.1401C248.842 18.1401 244.252 22.4601 244.252 28.2501C244.252 34.0401 248.872 38.3601 254.782 38.3601Z" fill="white"/>
<path d="M272.627 38.3601C277.427 38.3601 280.907 35.0301 280.907 30.5001C280.907 25.9701 277.427 22.6401 272.627 22.6401C267.827 22.6401 264.317 25.9701 264.317 30.5001C264.317 35.0301 267.827 38.3601 272.627 38.3601ZM272.627 34.4001C270.437 34.4001 268.907 32.7501 268.907 30.5001C268.907 28.2501 270.467 26.6001 272.627 26.6001C274.787 26.6001 276.347 28.2501 276.347 30.5001C276.347 32.7501 274.787 34.4001 272.627 34.4001Z" fill="white"/>
<path d="M285.598 38.3601C287.188 38.3601 288.448 37.0701 288.448 35.5101C288.448 33.9201 287.188 32.6301 285.598 32.6301C284.008 32.6301 282.718 33.9201 282.718 35.5101C282.718 37.0701 284.008 38.3601 285.598 38.3601Z" fill="white"/>
</svg>
