<svg width="71" class="svg-icon" height="70" viewBox="0 0 71 70" fill="none" xmlns="http://www.w3.org/2000/svg">
<path d="M66.2317 0H4.76829C2.37737 0 0.5 1.87737 0.5 4.26829V65.7317C0.5 68.1226 2.37737 70 4.76829 70H66.2317C68.6226 70 70.5 68.1226 70.5 65.7317V4.26829C70.5 1.87737 68.6226 0 66.2317 0ZM68.7927 4.26829V34.1463H36.3537V1.70732H66.2317C67.6822 1.70732 68.7927 2.81776 68.7927 4.26829ZM4.76829 1.70732H34.6463V34.1463H2.20732V4.26829C2.20732 2.81776 3.31776 1.70732 4.76829 1.70732ZM2.20732 65.7317V35.8537H34.6463V68.2927H4.76829C3.31776 68.2927 2.20732 67.1822 2.20732 65.7317ZM66.2317 68.2927H36.3537V35.8537H68.7927V65.7317C68.7927 67.1822 67.6822 68.2927 66.2317 68.2927Z" fill="#B52735"/>
<path d="M26.7065 49.512H19.0235V41.8291H17.3162V49.512H9.6333V51.2193H17.3162V58.9023H19.0235V51.2193H26.7065V49.512Z" fill="#B52735"/>
<path d="M9.6333 17.6699H26.7065V19.3772H9.6333V17.6699Z" fill="#B52735"/>
<path d="M43.5225 55.4878H60.5956V57.1951H43.5225V55.4878Z" fill="#B52735"/>
<path d="M43.5225 46.0977H60.5956V47.805H43.5225V46.0977Z" fill="#B52735"/>
<path d="M45.4043 23.9021L46.5981 25.0959L52.0601 19.7205L57.4388 25.0959L58.6359 23.9021L53.2572 18.5234L58.6359 13.0613L57.4388 11.8643L52.0601 17.3296L46.5981 11.8643L45.4043 13.0613L50.7797 18.5234L45.4043 23.9021Z" fill="#B52735"/>
</svg>
