<svg width="63" height="70" viewBox="0 0 63 70" fill="none" xmlns="http://www.w3.org/2000/svg">
<path d="M53.8485 10.6454V0.798352C53.8485 0.562701 53.7441 0.338978 53.5652 0.186847C53.3832 0.0347149 53.1446 -0.0309121 52.9119 0.013837C43.9033 1.63954 36.1745 6.99394 31.5003 14.7917C26.823 6.9973 19.0912 1.63962 10.0856 0.013837C9.84995 -0.0309075 9.61429 0.034718 9.43233 0.183868C9.25336 0.338978 9.14895 0.559723 9.14895 0.795373V10.6661C6.24057 11.4238 3.50522 12.6528 1.02615 14.368C0.811373 14.5172 0.683105 14.7618 0.683105 15.0243V67.8344C0.683105 68.1326 0.847165 68.4011 1.10967 68.5383C1.36918 68.6756 1.68836 68.6577 1.93294 68.4876C10.7835 62.3607 22.7329 62.9065 30.9901 69.8121C30.999 69.818 31.008 69.821 31.0169 69.827C31.0319 69.8389 31.0438 69.8538 31.0587 69.8628C31.0796 69.8777 31.1094 69.8807 31.1333 69.8926C31.1929 69.9254 31.2496 69.9523 31.3123 69.9672C31.3302 69.9732 31.3451 69.9851 31.363 69.9881C31.4047 69.997 31.4525 70 31.5002 70C31.539 70 31.5777 69.997 31.6165 69.9911C31.6642 69.9851 31.709 69.9582 31.7567 69.9433C31.7895 69.9314 31.8223 69.9254 31.8522 69.9105C31.8641 69.9045 31.876 69.9045 31.885 69.8986C31.9297 69.8717 31.9745 69.8419 32.0162 69.8091C40.2704 62.9065 52.2167 62.3606 61.0673 68.4846C61.3089 68.6547 61.631 68.6726 61.8905 68.5353C62.1501 68.3981 62.3171 68.1267 62.3171 67.8314V15.0244C62.3171 14.7648 62.1888 14.5173 61.9741 14.3711C59.4893 12.6529 56.7629 11.4031 53.8482 10.6454L53.8485 10.6454ZM10.7389 1.76512C19.2581 3.57875 26.4889 8.9391 30.7042 16.5965V66.3436C26.0925 59.4112 18.9755 54.6118 10.7389 52.9502V1.76512ZM2.27326 66.3726V15.4449C4.39113 14.0339 6.70296 12.9989 9.14897 12.3187V53.6086C9.14897 53.9934 9.4234 54.3215 9.80224 54.3901C17.4806 55.7742 24.1769 60.0249 28.6816 66.2356C20.613 61.445 10.3994 61.4241 2.27354 66.3728L2.27326 66.3726ZM32.2964 16.5957C36.5083 8.93872 43.7387 3.57494 52.2586 1.76435V11.2533V11.2861V52.9494C44.0228 54.6109 36.908 59.4104 32.2964 66.3398V16.5957ZM60.7243 66.3726C56.6376 63.8848 52.0227 62.6529 47.4202 62.6529C42.8622 62.6529 38.31 63.8609 34.2948 66.2503C38.7991 60.0279 45.5081 55.7801 53.1979 54.3933C53.5767 54.3247 53.8512 53.9966 53.8512 53.6118L53.8482 12.2922C56.2972 12.9753 58.606 14.0312 60.7239 15.4451L60.7243 66.3726Z" fill="#B52735"/>
<path d="M15.0221 18.7119C19.0073 20.2093 22.56 22.4913 25.5816 25.4951C25.7368 25.6503 25.9396 25.7278 26.1424 25.7278C26.3453 25.7278 26.5511 25.6503 26.7062 25.4951C27.0165 25.1819 27.0135 24.6778 26.7032 24.3705C23.5204 21.2086 19.7798 18.8043 15.5801 17.2263C15.1714 17.0742 14.7121 17.28 14.557 17.6917C14.4019 18.0974 14.6077 18.5567 15.0223 18.7118L15.0221 18.7119Z" fill="#B52735"/>
<path d="M15.0221 29.4265C19.0073 30.921 22.56 33.2059 25.5816 36.2068C25.7368 36.3619 25.9396 36.4395 26.1424 36.4395C26.3453 36.4395 26.5511 36.3619 26.7062 36.2068C27.0165 35.8936 27.0135 35.3895 26.7032 35.0822C23.5204 31.9233 19.7798 29.516 15.5801 27.938C15.1714 27.7829 14.7121 27.9917 14.557 28.4033C14.4019 28.812 14.6077 29.2714 15.0223 29.4264L15.0221 29.4265Z" fill="#B52735"/>
<path d="M26.7004 45.7941C23.5206 42.6352 19.777 40.2309 15.5773 38.6499C15.1686 38.4948 14.7093 38.7036 14.5542 39.1152C14.3991 39.5269 14.6079 39.9833 15.0195 40.1384C19.0078 41.6358 22.5605 43.9207 25.5791 46.9216C25.7342 47.0767 25.9371 47.1543 26.1399 47.1543C26.3428 47.1543 26.5486 47.0767 26.7037 46.9216C27.0139 46.6084 27.0109 46.1013 26.7007 45.794L26.7004 45.7941Z" fill="#B52735"/>
<path d="M36.8549 25.7248C37.0577 25.7248 37.2606 25.6473 37.4157 25.4922C40.4374 22.4883 43.9902 20.2093 47.9753 18.7089C48.3899 18.5538 48.5987 18.0944 48.4406 17.6858C48.2855 17.2742 47.8231 17.0683 47.4144 17.2205C43.2174 18.7984 39.4764 21.1997 36.2944 24.3647C35.9812 24.6719 35.9812 25.179 36.2914 25.4893C36.4465 25.6444 36.6493 25.7249 36.8552 25.7249L36.8549 25.7248Z" fill="#B52735"/>
<path d="M36.8549 36.4398C37.0577 36.4398 37.2606 36.3622 37.4157 36.2071C40.4374 33.2062 43.9902 30.9242 47.9753 29.4268C48.3899 29.2717 48.5987 28.8123 48.4406 28.4007C48.2855 27.989 47.8231 27.7832 47.4144 27.9353C43.2174 29.5133 39.4764 31.9145 36.2944 35.0795C35.9812 35.3868 35.9812 35.8939 36.2914 36.2041C36.4465 36.3592 36.6493 36.4398 36.8552 36.4398L36.8549 36.4398Z" fill="#B52735"/>
<path d="M36.8546 47.1511C37.0574 47.1511 37.2603 47.0765 37.4154 46.9184C38.9069 45.4329 40.5624 44.1055 42.3343 42.969C42.7042 42.7333 42.8146 42.2411 42.5759 41.8713C42.3373 41.5014 41.8451 41.391 41.4752 41.6296C39.6079 42.8288 37.8628 44.2307 36.2908 45.7908C35.9806 46.0981 35.9776 46.6052 36.2878 46.9154C36.4459 47.0735 36.6488 47.1511 36.8546 47.1511L36.8546 47.1511Z" fill="#B52735"/>
</svg>
