<svg width="73" height="72" viewBox="0 0 73 72" fill="none" xmlns="http://www.w3.org/2000/svg">
<path d="M69.9693 25.7687C69.9374 25.6695 69.9126 25.5775 69.8701 25.4784C69.4347 24.0481 68.893 22.6673 68.2699 21.3255C62.7292 9.32018 50.5782 1 36.4982 1C25.3068 1 15.3371 6.25749 8.92562 14.4283C7.23331 16.6021 5.78172 18.9741 4.62759 21.5055C4.00448 22.8827 3.46639 24.3024 3.02029 25.7646C2.79725 26.501 2.59544 27.2515 2.41842 28.0128C2.24494 28.7562 2.09271 29.4997 1.97233 30.2574C1.66078 32.1267 1.50146 34.0456 1.50146 35.9999C1.50146 39.2216 1.93339 42.3407 2.75121 45.2971C2.85035 45.6617 2.9601 46.0299 3.07339 46.384C3.43805 47.5735 3.86998 48.7312 4.36211 49.8606C6.03675 53.748 8.40519 57.2706 11.3048 60.2798C17.6669 66.8862 26.6029 71 36.5056 71C50.175 71 62.0172 63.1581 67.7706 51.7222C68.6344 50.0193 69.3602 48.2313 69.9302 46.3833C70.9463 43.1085 71.4986 39.6177 71.4986 35.9958C71.4915 32.4377 70.9605 29.0036 69.9692 25.7678L69.9693 25.7687Z" stroke="#B52735" stroke-width="1.8" stroke-miterlimit="10" stroke-linecap="round" stroke-linejoin="round"/>
<path d="M71.4921 36.004C71.4921 39.6258 70.9398 43.1166 69.9236 46.3915C69.3536 48.2396 68.6279 50.0275 67.764 51.7304L29.9 51.7268C28.7953 51.7268 27.9067 50.8382 27.9067 49.7336V23.3184C27.9067 22.7874 28.1121 22.3023 28.452 21.9483C28.8166 21.5624 29.33 21.3252 29.9 21.3252H68.2744C68.8975 22.667 69.4356 24.0513 69.8746 25.478C69.9171 25.5772 69.9419 25.6692 69.9737 25.7683C70.9614 29.0042 71.4926 32.4384 71.4926 36.0036L71.4921 36.004Z" stroke="#B52735" stroke-width="1.8" stroke-miterlimit="10" stroke-linecap="round" stroke-linejoin="round"/>
<path d="M28.4507 21.9482L53.1593 36.524" stroke="#B52735" stroke-width="1.8" stroke-miterlimit="10" stroke-linecap="round" stroke-linejoin="round"/>
<path d="M69.8693 25.4785L53.1582 36.5277" stroke="#B52735" stroke-width="1.8" stroke-miterlimit="10" stroke-linecap="round" stroke-linejoin="round"/>
<path d="M22.2551 36.6909H18.9307" stroke="#B52735" stroke-width="1.8" stroke-miterlimit="10" stroke-linecap="round" stroke-linejoin="round"/>
<path d="M22.2551 40.6772H13.9458" stroke="#B52735" stroke-width="1.8" stroke-miterlimit="10" stroke-linecap="round" stroke-linejoin="round"/>
<path d="M22.2548 44.9434H11.124" stroke="#B52735" stroke-width="1.8" stroke-miterlimit="10" stroke-linecap="round" stroke-linejoin="round"/>
</svg>
