<svg width="36" height="27" viewBox="0 0 36 27" fill="none" xmlns="http://www.w3.org/2000/svg">
<path d="M10.9339 8.13855V8.63855H11.4339H35.1839C35.3461 8.63855 35.4756 8.77087 35.4756 8.92643V18.381C35.4756 22.4359 32.1392 25.7598 28.0589 25.7598H8.26725C4.18696 25.7598 0.850586 22.4359 0.850586 18.381V8.92643C0.850586 8.77088 0.980088 8.63855 1.14225 8.63855H1.93392H2.43392V8.13855V6.95674C2.43392 6.80119 2.56343 6.66886 2.72559 6.66886C2.88775 6.66886 3.01725 6.80118 3.01725 6.95674V8.13855V8.63855H3.51725H5.89225H6.39225V8.13855V3.01734C6.39225 1.76001 7.39385 0.759766 8.66308 0.759766C9.93232 0.759766 10.9339 1.76001 10.9339 3.01734C10.9339 3.17289 10.8044 3.30522 10.6423 3.30522C10.4801 3.30522 10.3506 3.1729 10.3506 3.01734C10.3506 2.06956 9.60956 1.33552 8.66308 1.33552C7.71661 1.33552 6.97558 2.06956 6.97558 3.01734V8.13855V8.63855H7.47558H9.85058H10.3506V8.13855V6.95674C10.3506 6.80119 10.4801 6.66886 10.6423 6.66886C10.8044 6.66886 10.9339 6.80118 10.9339 6.95674V8.13855ZM26.9756 9.71431V9.21431H26.4756H24.1006H23.6006V9.71431V14.4416V14.9416H24.1006H26.4756H26.9756V14.4416V9.71431ZM23.0172 9.71431V9.21431H22.5172H20.1422H19.6422V9.71431V18.381V18.881H20.1422H30.4339H30.9339V18.381V9.71431V9.21431H30.4339H28.0589H27.5589V9.71431V15.2295C27.5589 15.385 27.4294 15.5173 27.2672 15.5173H23.3089C23.1468 15.5173 23.0172 15.385 23.0172 15.2295V9.71431ZM1.93392 9.21431H1.43392V9.71431V18.381C1.43392 22.1264 4.50972 25.184 8.26725 25.184H28.0589C31.8164 25.184 34.8922 22.1264 34.8922 18.381V9.71431V9.21431H34.3922H32.0172H31.5172V9.71431V19.1689C31.5172 19.3244 31.3877 19.4567 31.2256 19.4567H19.3506C19.1884 19.4567 19.0589 19.3244 19.0589 19.1689V9.71431V9.21431H18.5589H1.93392Z" stroke="#828282"/>
</svg>
