<svg width="37" height="25" viewBox="0 0 37 25" fill="none" xmlns="http://www.w3.org/2000/svg">
<path d="M15.7343 6.42383H32.1386C32.5214 6.42383 32.9392 6.50052 33.2475 6.73419C33.5166 6.93815 33.8273 7.35663 33.8273 8.33001V11.1216H14.0455V8.33001C14.0455 7.35216 14.3568 6.93455 14.6247 6.73199C14.9321 6.49949 15.3494 6.42383 15.7343 6.42383Z" stroke="#828282" stroke-width="1.5"/>
<path d="M3.90322 12.6408V13.3908H4.65322H5.91641H34.1542C34.8445 13.3908 35.4042 13.9504 35.4042 14.6408V23.5025H32.251V18.062V17.312H31.501H4.65322H3.90322V18.062V23.5098H0.75V2.25977C0.75 1.56941 1.30964 1.00977 2 1.00977H2.65322C3.34358 1.00977 3.90322 1.56941 3.90322 2.25977V12.6408Z" stroke="#828282" stroke-width="1.5"/>
<path d="M11.1236 8.77234C11.1236 10.1391 9.9956 11.2664 8.58012 11.2664C7.16464 11.2664 6.03662 10.1391 6.03662 8.77234C6.03662 7.40559 7.16464 6.27832 8.58012 6.27832C9.9956 6.27832 11.1236 7.40559 11.1236 8.77234Z" stroke="#828282" stroke-width="1.5"/>
</svg>
