<svg width="20" height="20" viewBox="0 0 20 20" fill="none" xmlns="http://www.w3.org/2000/svg">
<path fill-rule="evenodd" clip-rule="evenodd" d="M0.266267 0.266267C0.621289 -0.0887555 1.19689 -0.0887555 1.55192 0.266267L10 8.71435L18.4481 0.266267C18.8031 -0.0887555 19.3787 -0.0887555 19.7337 0.266267C20.0888 0.621289 20.0888 1.19689 19.7337 1.55192L11.2856 10L19.7337 18.4481C20.0888 18.8031 20.0888 19.3787 19.7337 19.7337C19.3787 20.0888 18.8031 20.0888 18.4481 19.7337L10 11.2856L1.55192 19.7337C1.19689 20.0888 0.621289 20.0888 0.266267 19.7337C-0.0887555 19.3787 -0.0887555 18.8031 0.266267 18.4481L8.71435 10L0.266267 1.55192C-0.0887555 1.19689 -0.0887555 0.621289 0.266267 0.266267Z" fill="#000A27"/>
</svg>
