<svg width="50" height="50" viewBox="0 0 50 50" fill="none" xmlns="http://www.w3.org/2000/svg">
<path d="M25 49.9995C31.6301 49.9995 37.9895 47.3654 42.679 42.6786C47.3658 37.9889 50 31.6297 50 24.9997C50 18.3698 47.3658 12.0103 42.679 7.32089C37.9893 2.6341 31.63 -4.41704e-05 25 -4.35908e-05C18.37 -4.30112e-05 12.0105 2.6341 7.321 7.32089C2.63416 12.0106 -2.76516e-06 18.3698 -2.18555e-06 24.9997C0.00863487 31.6269 2.64566 37.9803 7.3325 42.6675C12.0193 47.3548 18.3722 49.9909 25 49.9995ZM25 2.30245C31.0198 2.30245 36.7919 4.69479 41.0495 8.94971C45.3045 13.2075 47.6968 18.9794 47.6968 24.9991C47.6968 31.0188 45.3045 36.7909 41.0495 41.0484C36.7917 45.3034 31.0198 47.6957 25 47.6957C18.9802 47.6957 13.2081 45.3034 8.95049 41.0484C4.69553 36.7906 2.30318 31.0188 2.30317 24.9991C2.30893 18.9822 4.70128 13.2132 8.95911 8.95781C13.2141 4.70002 18.9832 2.3082 25 2.30245Z" fill="white"/>
<path d="M34.5 24.134C35.1667 24.5189 35.1667 25.4811 34.5 25.866L21 33.6603C20.3333 34.0452 19.5 33.564 19.5 32.7942L19.5 17.2058C19.5 16.436 20.3333 15.9548 21 16.3397L34.5 24.134Z" fill="white"/>
</svg>
